<svg xmlns="http://www.w3.org/2000/svg" width="1080" height="459" viewBox="0 0 1080 459" version="1.1"><path d="M 426.330 306.922 C 423.486 308.365, 420.242 310.376, 419.120 311.391 C 417.999 312.406, 413.013 321.292, 408.040 331.137 C 403.068 340.981, 399 349.253, 399 349.518 C 399 349.783, 405.188 349.992, 412.750 349.983 L 426.500 349.966 428.874 344.483 C 430.179 341.467, 431.529 339.014, 431.874 339.032 C 432.218 339.049, 433.374 339.724, 434.441 340.532 C 435.509 341.339, 437.398 342, 438.640 342 C 440.828 342, 440.853 342.107, 439.449 345.468 C 438.652 347.375, 438 349.175, 438 349.468 C 438 349.761, 444.059 350, 451.465 350 C 463.280 350, 465.040 349.786, 465.827 348.250 C 466.321 347.288, 469.071 339.649, 471.938 331.276 C 475.076 322.115, 476.902 315.266, 476.524 314.076 C 476.179 312.989, 473.720 310.277, 471.060 308.050 L 466.222 304 448.861 304.149 C 432.252 304.291, 431.276 304.412, 426.330 306.922 M 499.620 304.806 C 499.346 305.249, 496.732 306.824, 493.811 308.307 C 490.890 309.790, 487.250 312.015, 485.722 313.252 C 483.869 314.751, 481.821 318.497, 479.569 324.500 C 477.713 329.450, 476.402 333.837, 476.656 334.250 C 476.910 334.663, 484.104 335, 492.642 335 C 504.616 335, 508.072 335.286, 507.752 336.250 C 507.453 337.153, 502.841 337.639, 491.130 338 C 478.213 338.398, 474.726 338.805, 473.958 340 C 473.427 340.825, 472.473 343.190, 471.836 345.256 C 471.200 347.322, 470.916 349.250, 471.206 349.539 C 471.495 349.828, 482.030 350.140, 494.616 350.232 L 517.500 350.399 525 346.224 C 529.690 343.614, 533.395 340.723, 534.889 338.510 C 536.204 336.562, 538.116 332.431, 539.139 329.330 C 540.163 326.228, 541 323.096, 541 322.370 C 541 321.342, 537.439 320.989, 524.955 320.775 C 509.113 320.503, 508.929 320.475, 510.373 318.500 C 511.701 316.683, 513.310 316.454, 527.997 316 L 544.159 315.500 545.981 310.318 C 546.983 307.468, 547.547 304.881, 547.235 304.568 C 546.922 304.256, 536.193 304, 523.392 304 C 510.591 304, 499.894 304.362, 499.620 304.806 M 556.886 306.555 C 553.912 308.670, 552.677 310.777, 549.703 318.805 C 547.728 324.137, 544.511 332.868, 542.556 338.206 C 540.600 343.545, 539 348.350, 539 348.884 C 539 349.419, 541.517 350.171, 544.593 350.555 C 547.669 350.939, 552.722 350.955, 555.823 350.591 C 558.923 350.227, 562.476 349.263, 563.717 348.450 C 564.959 347.636, 566.936 345.085, 568.112 342.780 C 569.288 340.476, 571.997 333.537, 574.132 327.361 C 576.267 321.185, 578.911 314.040, 580.007 311.483 C 581.103 308.926, 582 306.196, 582 305.417 C 582 304.282, 579.858 304, 571.238 304 C 561.301 304, 560.201 304.196, 556.886 306.555 M 596.953 307.873 C 593.353 309.868, 589.384 312.239, 588.135 313.142 C 586.756 314.139, 584.505 318.392, 582.411 323.955 C 580.513 328.999, 579.220 333.547, 579.539 334.063 C 579.859 334.581, 587.081 335, 595.681 335 C 609.402 335, 611.097 335.178, 610 336.500 C 608.996 337.710, 605.882 338, 593.878 338 C 580.500 338, 578.805 338.195, 577.065 339.935 C 576.001 340.999, 574.663 343.562, 574.092 345.629 C 573.521 347.696, 573.305 349.638, 573.611 349.944 C 573.917 350.250, 584.442 350.440, 596.999 350.367 L 619.830 350.234 627.466 346.019 C 632.715 343.121, 635.909 340.583, 637.686 337.898 C 639.108 335.749, 641.115 331.433, 642.147 328.307 C 643.178 325.180, 643.669 322.269, 643.238 321.838 C 642.806 321.406, 635.350 320.929, 626.667 320.777 L 610.882 320.500 612.980 318.250 C 614.981 316.104, 615.792 316, 630.590 316 L 646.102 316 647.483 312.695 C 648.243 310.877, 649.169 308.177, 649.541 306.695 L 650.217 304 626.858 304.123 L 603.500 304.246 596.953 307.873 M 662.500 305.967 C 660.300 307.025, 657.806 308.477, 656.958 309.195 C 656.110 309.913, 654.465 312.075, 653.302 314 C 652.138 315.925, 649.600 321.775, 647.661 327 C 645.721 332.225, 643.826 337.757, 643.448 339.293 C 642.857 341.699, 643.341 342.622, 646.939 345.944 L 651.117 349.801 668.095 350.150 C 677.433 350.343, 687.804 350.275, 691.142 350 L 697.211 349.500 699.068 344.594 C 700.090 341.896, 700.690 339.308, 700.404 338.844 C 700.117 338.380, 694.698 338, 688.362 338 L 676.841 338 677.531 334.750 C 677.910 332.962, 679.554 328.012, 681.183 323.750 L 684.145 316 696.547 316 L 708.949 316 710.474 313.050 C 711.313 311.427, 712 308.727, 712 307.050 L 712 304 689.250 304.022 C 668.884 304.042, 666.081 304.245, 662.500 305.967 M 727.500 307.456 C 723.650 309.338, 719.874 311.901, 719.109 313.151 C 718.344 314.402, 714.181 322.533, 709.859 331.222 C 705.537 339.911, 702 347.690, 702 348.510 C 702 349.754, 704.150 350, 715.011 350 L 728.022 350 730.719 344.500 C 732.203 341.475, 733.718 339, 734.086 339 C 734.454 339, 735.315 339.675, 736 340.500 C 736.685 341.325, 738.363 342, 739.729 342 C 741.591 342, 742.061 342.399, 741.603 343.593 C 741.267 344.469, 740.716 346.282, 740.380 347.622 L 739.769 350.058 753.495 349.779 L 767.222 349.500 771.194 338.500 C 773.378 332.450, 776.026 324.880, 777.077 321.679 C 778.662 316.853, 778.776 315.472, 777.745 313.604 C 777.060 312.365, 774.645 309.697, 772.379 307.675 L 768.258 304 751.379 304.017 L 734.500 304.033 727.500 307.456 M 786.627 310.750 C 785.224 314.462, 782.466 322, 780.497 327.500 C 778.528 333, 776.036 339.698, 774.959 342.383 C 773.881 345.069, 773 347.882, 773 348.633 C 773 349.727, 775.944 349.999, 787.750 349.997 L 802.500 349.995 805.328 341.987 C 806.884 337.582, 808.535 334.213, 808.997 334.498 C 809.460 334.784, 810.299 337.168, 810.863 339.796 C 811.426 342.424, 812.352 345.795, 812.919 347.287 L 813.950 350 828.975 350 C 837.239 350, 844 349.831, 844 349.625 C 844 349.419, 842.447 345.842, 840.549 341.677 C 837.099 334.106, 837.098 334.104, 839.299 333.442 C 840.509 333.077, 843.017 331.367, 844.872 329.640 C 846.727 327.913, 849.079 324.700, 850.100 322.500 C 851.121 320.300, 851.966 316.500, 851.978 314.055 C 851.995 310.575, 851.416 309, 849.313 306.805 L 846.626 304 817.901 304 L 789.177 304 786.627 310.750 M 443.848 317.025 C 442.939 317.556, 441.084 319.904, 439.726 322.245 C 438.367 324.585, 436.943 327.512, 436.560 328.750 C 435.912 330.849, 436.162 331, 440.294 331 L 444.722 331 446.861 325.411 C 448.038 322.337, 449 319.235, 449 318.518 C 449 317.801, 448.288 316.941, 447.418 316.607 C 446.548 316.273, 445.761 316.014, 445.668 316.030 C 445.576 316.047, 444.757 316.495, 443.848 317.025 M 745.209 317.566 C 743.979 318.427, 742.137 320.790, 741.115 322.816 C 740.093 324.842, 738.944 327.512, 738.561 328.750 C 737.917 330.832, 738.173 331, 741.988 331 C 746.026 331, 746.160 330.887, 748.555 325.471 C 749.900 322.431, 751 319.056, 751 317.971 C 751 316.749, 750.325 316, 749.223 316 C 748.245 316, 746.439 316.705, 745.209 317.566 M 814.109 318.250 C 813.646 319.488, 812.952 321.512, 812.566 322.750 C 811.965 324.679, 812.230 325, 814.419 325 C 816.407 325, 817.307 324.201, 818.480 321.394 C 819.309 319.410, 819.738 317.385, 819.434 316.894 C 819.131 316.402, 817.997 316, 816.916 316 C 815.794 316, 814.589 316.965, 814.109 318.250" stroke="none" fill="#ee0606" fill-rule="evenodd"/><path d="M 618 54.976 C 616.625 55.419, 611.450 57.378, 606.500 59.330 C 601.550 61.281, 590.300 65.862, 581.500 69.508 C 572.700 73.155, 561 77.881, 555.500 80.012 C 550 82.142, 541.675 85.520, 537 87.518 C 532.325 89.516, 526.700 91.803, 524.500 92.600 C 522.300 93.398, 519.150 94.677, 517.500 95.443 C 515.850 96.210, 512.250 97.720, 509.500 98.799 C 506.750 99.878, 498.425 103.233, 491 106.254 C 483.575 109.275, 471.200 114.330, 463.500 117.487 C 455.800 120.643, 446.125 124.570, 442 126.212 C 437.875 127.854, 432.771 129.840, 430.657 130.626 C 428.543 131.411, 425.074 132.942, 422.947 134.027 C 420.820 135.112, 418.607 136, 418.029 136 C 417.451 136, 415.071 136.882, 412.739 137.960 C 410.408 139.039, 401.075 142.908, 392 146.560 C 382.925 150.212, 374.600 153.704, 373.500 154.320 C 372.400 154.936, 367 155.454, 361.500 155.470 L 351.500 155.500 351.193 159.750 C 350.980 162.691, 350.431 164, 349.409 164 C 348.598 164, 345.698 165.133, 342.967 166.517 C 340.235 167.901, 338 169.611, 338 170.317 C 338 171.023, 338.401 172.027, 338.890 172.550 C 339.380 173.072, 342.305 177.903, 345.390 183.285 L 351 193.071 351 228.426 L 351 263.781 343.250 264.229 C 338.988 264.475, 335.187 264.412, 334.803 264.088 C 334.420 263.765, 333.430 254.050, 332.604 242.500 C 331.777 230.950, 330.611 212.500, 330.012 201.500 C 329.413 190.500, 328.483 175.897, 327.946 169.049 C 327.408 162.201, 326.568 156.351, 326.080 156.049 C 325.592 155.747, 322.899 155.656, 320.096 155.847 L 315 156.193 315 217.121 L 315 278.050 317.750 279.144 C 319.728 279.931, 348.140 279.994, 419 279.369 C 473.175 278.891, 543.429 278.664, 575.120 278.865 C 613.514 279.108, 632.950 278.890, 633.369 278.211 C 633.715 277.651, 629.612 274.576, 624.249 271.374 C 616.077 266.496, 613.449 265.437, 608 264.824 C 604.425 264.422, 558.346 264.081, 505.603 264.066 C 452.859 264.051, 409.611 263.918, 409.495 263.769 C 409.379 263.621, 406.807 257.200, 403.778 249.500 C 400.750 241.800, 397.495 233.417, 396.547 230.872 L 394.822 226.244 406.553 206.872 C 413.005 196.217, 421.206 182.550, 424.777 176.500 C 428.348 170.450, 431.870 164.525, 432.604 163.333 C 433.469 161.927, 465.905 145.148, 524.911 115.583 C 574.947 90.512, 616.023 70, 616.193 70 C 616.362 70, 616.369 105.662, 616.208 149.250 L 615.916 228.500 613.458 232.054 C 612.106 234.008, 611 236.616, 611 237.849 C 611 239.082, 612.105 241.195, 613.455 242.545 C 614.936 244.027, 617.063 245, 618.818 245 C 620.613 245, 622.717 244.010, 624.311 242.416 C 626.150 240.577, 627.493 240.022, 628.969 240.490 C 630.598 241.007, 632.592 239.705, 638.271 234.419 C 642.247 230.717, 648.137 225.734, 651.360 223.344 C 655.932 219.955, 658.081 219, 661.138 219 C 664.004 219, 668.471 220.761, 677.778 225.560 C 684.775 229.168, 691.843 233.444, 693.485 235.064 C 696.155 237.698, 696.541 238.875, 697.155 246.254 C 697.532 250.789, 697.877 259.507, 697.920 265.628 C 697.978 273.626, 698.377 277.068, 699.339 277.867 C 700.284 278.650, 715.992 278.981, 752.589 278.989 C 781.140 278.995, 809.284 279.427, 815.132 279.951 C 820.979 280.474, 831.554 282.052, 838.632 283.458 C 845.709 284.864, 854.284 286.745, 857.687 287.639 C 861.089 288.532, 864.514 289.017, 865.297 288.716 C 866.079 288.416, 867.250 285.995, 867.898 283.335 C 868.545 280.676, 870.265 275.575, 871.719 272 C 873.172 268.425, 875.221 264.528, 876.272 263.339 C 878.021 261.359, 878.446 261.291, 881.341 262.526 C 883.078 263.267, 893.050 268.532, 903.500 274.226 C 915.800 280.927, 922.432 285.093, 922.307 286.039 C 922.201 286.842, 920.984 291.100, 919.601 295.500 C 918.219 299.900, 915.944 306.650, 914.545 310.500 C 912.151 317.089, 912.089 317.722, 913.500 321.270 C 914.325 323.344, 914.997 326.944, 914.994 329.270 C 914.991 331.597, 914.493 335.287, 913.886 337.471 C 913.108 340.274, 910.652 343.574, 905.534 348.692 C 901.547 352.679, 897.208 356.392, 895.892 356.942 C 894.577 357.493, 891.250 359.225, 888.500 360.792 C 884.316 363.175, 883.448 364.170, 883.182 366.885 C 883.007 368.670, 883.431 370.814, 884.124 371.650 C 884.818 372.485, 888.486 374.730, 892.276 376.639 L 899.168 380.110 902.693 377.421 C 904.631 375.942, 907.028 372.922, 908.019 370.709 C 909.380 367.668, 909.556 366.262, 908.739 364.953 C 907.888 363.590, 908.352 361.865, 910.919 356.860 C 912.714 353.362, 916.848 345.260, 920.107 338.856 C 924.450 330.320, 926.566 324.715, 928.033 317.856 C 929.133 312.710, 930.926 303.275, 932.017 296.889 C 933.108 290.503, 934 283.935, 934 282.294 C 934 280.653, 933.209 278.594, 932.242 277.719 C 931.275 276.844, 923.288 272.346, 914.492 267.724 C 905.696 263.102, 889.500 254.689, 878.500 249.029 C 867.500 243.369, 854 236.384, 848.500 233.507 C 843 230.630, 829.500 223.637, 818.500 217.966 C 807.500 212.296, 794.225 205.487, 789 202.837 C 783.775 200.186, 778.600 198.027, 777.500 198.040 C 776.400 198.052, 771 200.723, 765.500 203.975 C 760 207.227, 751.675 212.050, 747 214.694 C 742.325 217.337, 738.218 219.631, 737.874 219.792 C 737.529 219.953, 723.804 213.933, 707.374 206.416 C 690.943 198.898, 674.401 191.455, 670.612 189.874 C 666.824 188.293, 662.392 187, 660.764 187 C 659.135 187, 656.257 187.733, 654.367 188.630 C 652.478 189.526, 648.438 193.014, 645.389 196.380 C 642.340 199.746, 637.776 205.762, 635.248 209.750 C 631.945 214.960, 630.067 216.997, 628.575 216.991 C 627.434 216.986, 625.375 218.351, 624 220.023 L 621.500 223.064 621.764 145.282 C 621.909 102.502, 622.232 66.938, 622.482 66.250 C 622.733 65.563, 624.076 65, 625.469 65 C 627.319 65, 628 64.471, 628 63.034 C 628 61.953, 627.242 59.478, 626.315 57.534 C 625.155 55.101, 623.986 54.027, 622.565 54.086 C 621.429 54.133, 619.375 54.534, 618 54.976 M 209 155.683 C 207.625 155.908, 205.275 156.571, 203.779 157.156 C 202.282 157.741, 197.037 162.782, 192.124 168.359 C 187.211 173.937, 175.044 187.500, 165.086 198.500 C 155.128 209.500, 145.819 220.158, 144.400 222.184 C 142.980 224.211, 141.411 227.586, 140.913 229.684 C 140.414 231.783, 139.715 243.625, 139.359 256 C 139.003 268.375, 139.045 283.337, 139.452 289.250 L 140.192 300 176.628 300 C 207.024 300, 213.670 299.747, 216.715 298.475 C 218.723 297.636, 223.846 296.061, 228.100 294.975 C 232.353 293.889, 237.943 293, 240.522 293 C 243.101 293, 247.976 293.708, 251.356 294.574 C 254.735 295.440, 259.525 297.315, 262 298.740 C 264.475 300.165, 268.226 302.795, 270.335 304.585 C 272.445 306.374, 275.540 309.700, 277.214 311.976 C 278.887 314.252, 281.706 320.026, 283.477 324.807 L 286.697 333.500 320.598 333.500 L 354.500 333.500 355.137 328.281 C 355.487 325.410, 356.938 321.075, 358.361 318.646 C 359.784 316.218, 363.289 312.127, 366.150 309.555 C 369.011 306.983, 373.246 303.768, 375.560 302.412 C 377.875 301.055, 383.930 298.167, 389.016 295.993 C 394.102 293.819, 402.142 290.867, 406.882 289.432 C 411.622 287.998, 415.818 286.523, 416.208 286.155 C 416.597 285.786, 394.655 285.651, 367.448 285.854 C 340.242 286.058, 315.961 285.921, 313.491 285.551 L 309 284.877 309 221.521 C 309 186.674, 308.727 157.452, 308.393 156.582 C 307.850 155.167, 302.701 155.014, 259.643 155.136 C 233.164 155.211, 210.375 155.457, 209 155.683 M 208.334 170.285 C 207.143 170.953, 205.143 172.850, 203.890 174.500 C 202.637 176.150, 197.320 182.225, 192.075 188 C 186.830 193.775, 179.109 202.172, 174.917 206.661 C 170.724 211.149, 166.103 216.855, 164.647 219.339 C 163.191 221.823, 162 224.998, 162 226.393 C 162 227.877, 162.802 229.359, 163.934 229.965 C 165.195 230.640, 183.646 231, 216.934 231 L 268 231 268 200 L 268 169 239.250 169.035 C 218.611 169.061, 209.889 169.414, 208.334 170.285 M 398.500 179.076 C 389.150 183.953, 381.147 188.074, 380.717 188.233 C 380.286 188.392, 381.111 191.667, 382.549 195.511 C 383.988 199.355, 386.064 204.975, 387.163 208 C 388.261 211.025, 389.518 213.872, 389.956 214.326 C 390.394 214.781, 396.659 205.243, 403.876 193.132 C 411.094 181.020, 417 170.861, 417 170.555 C 417 170.250, 416.663 170.047, 416.250 170.104 C 415.837 170.161, 407.850 174.198, 398.500 179.076 M 767.951 215.265 C 762.203 218.714, 755.822 222.653, 753.772 224.018 C 751.722 225.383, 749.791 227.147, 749.481 227.938 C 749.172 228.728, 749.724 229.853, 750.707 230.438 C 751.691 231.022, 761.835 236.338, 773.248 242.250 C 784.662 248.162, 794.606 253, 795.345 253 C 796.085 253, 797.422 252.191, 798.318 251.202 C 799.213 250.213, 802.207 244.834, 804.973 239.250 C 807.738 233.666, 810 228.245, 810 227.203 C 810 225.793, 806.391 223.358, 795.894 217.688 C 788.135 213.497, 781.026 209.826, 780.094 209.530 C 779.080 209.208, 774.213 211.506, 767.951 215.265 M 651.591 232.573 C 649.441 233.361, 646.241 235.104, 644.481 236.447 C 642.721 237.789, 639.919 241.051, 638.256 243.694 C 636.592 246.337, 634.681 250.875, 634.009 253.777 C 633.337 256.679, 633.092 260.675, 633.463 262.655 C 633.835 264.636, 635.209 268.676, 636.516 271.633 C 638.148 275.322, 639.716 277.322, 641.512 278.005 C 642.952 278.552, 651.638 278.997, 660.815 278.994 C 669.992 278.991, 679.114 278.540, 681.088 277.992 C 684.027 277.176, 685.156 276.045, 687.338 271.733 C 689.514 267.432, 690 265.107, 690 259 C 690 252.842, 689.519 250.578, 687.262 246.117 C 685.429 242.494, 682.867 239.477, 679.512 236.989 C 676.755 234.945, 672.970 232.762, 671.101 232.136 C 669.231 231.511, 664.956 231.032, 661.601 231.070 C 658.245 231.109, 653.741 231.785, 651.591 232.573 M 822.698 234.781 C 821.811 235.761, 818.759 241.049, 815.916 246.531 C 813.073 252.014, 810.385 257.737, 809.943 259.249 C 809.389 261.147, 809.563 262.420, 810.507 263.364 C 811.258 264.115, 820.148 268.896, 830.262 273.988 C 842.567 280.182, 849.288 283.043, 850.576 282.633 C 851.791 282.247, 855.074 276.985, 859.484 268.357 L 866.467 254.692 863.754 252.666 C 862.261 251.551, 853.494 246.689, 844.270 241.859 C 835.047 237.030, 826.782 233.061, 825.905 233.040 C 825.028 233.018, 823.585 233.802, 822.698 234.781 M 657.822 242.958 C 656.349 243.415, 653.540 245.012, 651.580 246.507 C 649.171 248.345, 647.657 250.561, 646.905 253.352 C 646.294 255.622, 646.069 259.489, 646.406 261.944 C 646.803 264.840, 647.981 267.435, 649.759 269.328 C 651.267 270.933, 653.948 272.866, 655.718 273.623 C 657.488 274.380, 660.576 275, 662.582 275 C 664.587 275, 668.023 273.991, 670.217 272.758 C 672.558 271.442, 674.990 268.980, 676.103 266.798 C 677.150 264.746, 678 261.023, 678 258.490 C 678 255.966, 677.325 252.596, 676.501 251.002 C 675.677 249.408, 673.539 247.003, 671.751 245.659 C 669.963 244.314, 666.700 242.970, 664.500 242.671 C 662.300 242.372, 659.295 242.501, 657.822 242.958 M 229 300.822 C 225.975 301.831, 221.967 303.458, 220.093 304.436 C 218.219 305.414, 214.460 308.296, 211.739 310.841 C 209.019 313.385, 205.377 318.175, 203.646 321.484 C 200.607 327.296, 200.500 327.923, 200.500 340 C 200.500 352.132, 200.594 352.677, 203.688 358.500 C 205.442 361.800, 208.202 365.882, 209.822 367.571 C 211.441 369.260, 214.966 372.053, 217.655 373.778 C 221.111 375.997, 224.951 377.333, 230.767 378.342 C 237.758 379.555, 240.054 379.567, 246.083 378.418 C 249.983 377.675, 255.576 375.967, 258.512 374.623 C 261.448 373.279, 265.839 370.346, 268.270 368.105 C 271.075 365.520, 273.878 361.452, 275.944 356.972 C 277.883 352.764, 279.408 347.597, 279.717 344.184 C 280.003 341.033, 279.704 335.892, 279.054 332.758 C 278.403 329.625, 276.527 324.371, 274.884 321.084 C 273.096 317.506, 269.736 313.132, 266.512 310.185 C 263.151 307.114, 258.566 304.227, 254.314 302.506 C 250.105 300.803, 245.015 299.603, 241 299.368 C 236.490 299.103, 232.816 299.548, 229 300.822 M 139.222 319.750 L 139.500 333.500 166.122 333.766 L 192.744 334.032 193.302 331.240 C 193.609 329.705, 194.830 325.857, 196.015 322.690 C 197.200 319.523, 199.720 314.900, 201.614 312.418 C 203.509 309.936, 204.794 307.476, 204.471 306.952 C 204.117 306.381, 190.901 306, 171.413 306 L 138.944 306 139.222 319.750 M 934.454 318.132 C 932.968 321.084, 928.827 329.125, 925.251 336 C 921.674 342.875, 917.505 350.750, 915.986 353.500 C 914.467 356.250, 912.928 359.480, 912.567 360.678 C 911.996 362.574, 912.723 363.256, 918.206 365.957 C 921.668 367.663, 925.293 369.608, 926.262 370.280 C 927.771 371.325, 928.523 370.955, 931.514 367.692 C 933.433 365.598, 936.781 361.268, 938.952 358.071 C 941.123 354.874, 944.272 349.556, 945.951 346.253 C 947.629 342.950, 950.127 336.803, 951.501 332.593 C 952.876 328.383, 954 323.866, 954 322.555 C 954 320.762, 952.722 319.385, 948.841 316.997 C 946.003 315.251, 942.213 313.584, 940.418 313.293 C 937.306 312.788, 937.028 313.014, 934.454 318.132 M 235.500 319.905 C 233.850 320.323, 231.150 321.376, 229.500 322.243 C 227.850 323.111, 225.179 325.211, 223.564 326.910 C 221.151 329.447, 220.551 331.062, 220.196 335.965 C 219.959 339.246, 220.073 343.573, 220.449 345.580 C 220.915 348.064, 222.668 350.763, 225.939 354.034 C 229.849 357.945, 231.624 358.971, 235.471 359.548 C 238.386 359.985, 241.791 359.787, 244.350 359.031 C 246.632 358.357, 250.017 356.660, 251.871 355.259 C 253.775 353.822, 256.328 350.340, 257.739 347.258 C 259.598 343.198, 260.100 340.780, 259.700 337.801 C 259.405 335.600, 257.871 331.706, 256.291 329.149 C 254.609 326.427, 251.777 323.600, 249.459 322.329 C 247.282 321.135, 243.925 319.930, 242 319.651 C 240.075 319.372, 237.150 319.486, 235.500 319.905 M 401.316 354.718 C 398.482 355.073, 397.210 356.513, 389.754 367.808 C 385.145 374.789, 380.391 382.128, 379.188 384.118 C 377.984 386.108, 377 388.020, 377 388.368 C 377 388.716, 383.005 389, 390.345 389 C 401.796 389, 403.910 388.752, 405.243 387.250 C 406.097 386.288, 407.888 383.250, 409.223 380.500 C 410.558 377.750, 414.004 371.111, 416.882 365.747 C 419.760 360.383, 421.837 355.545, 421.498 354.997 C 421.156 354.443, 417.241 354.071, 412.691 354.160 C 408.186 354.248, 403.067 354.499, 401.316 354.718 M 445.850 357.250 C 444.707 358.488, 439.998 365.265, 435.386 372.311 C 430.774 379.357, 427 385.784, 427 386.593 C 427 387.819, 428.945 388.017, 438.714 387.782 C 450.063 387.509, 450.468 387.422, 451.737 385 C 452.458 383.625, 456.173 376.698, 459.994 369.606 C 463.814 362.514, 466.702 356.326, 466.411 355.856 C 466.120 355.385, 461.842 355, 456.905 355 C 448.879 355, 447.709 355.238, 445.850 357.250 M 493.411 357.750 C 492.537 358.712, 488.265 364.900, 483.917 371.500 C 479.569 378.100, 476.009 384.063, 476.006 384.750 C 476.002 385.663, 478.577 386, 485.566 386 C 490.827 386, 496.002 385.534, 497.066 384.965 C 498.130 384.395, 499 383.438, 499 382.837 C 499 382.236, 501.945 376.391, 505.543 369.847 C 509.142 363.303, 511.816 357.511, 511.484 356.975 C 511.153 356.439, 507.309 356, 502.941 356 C 496.650 356, 494.670 356.364, 493.411 357.750 M 539.291 359.750 C 538.936 360.712, 535.350 366.320, 531.323 372.211 C 527.295 378.102, 524 383.389, 524 383.961 C 524 384.609, 527.699 385, 533.837 385 L 543.673 385 547.720 377.250 C 549.945 372.988, 552.939 367.475, 554.371 365 C 555.804 362.525, 556.981 359.938, 556.988 359.250 C 556.997 358.347, 554.633 358, 548.469 358 C 541.256 358, 539.837 358.271, 539.291 359.750 M 740.265 362.445 L 736.030 364.867 681.265 363.986 C 651.144 363.501, 616.802 362.832, 604.948 362.498 L 583.396 361.893 578.745 371.996 C 574.858 380.441, 574.350 382.197, 575.650 382.696 C 576.505 383.024, 591.896 382.984, 609.852 382.607 C 627.809 382.230, 664.550 381.554, 691.500 381.104 C 731.983 380.429, 740.969 380.523, 743.200 381.644 C 744.686 382.390, 747.062 383, 748.482 383 C 749.902 383, 752.530 382.388, 754.322 381.639 C 756.113 380.890, 758.353 379.504, 759.299 378.558 C 760.245 377.613, 760.763 376.425, 760.450 375.919 C 760.138 375.414, 757.714 375, 755.063 375 C 751.887 375, 749.797 374.460, 748.930 373.416 C 747.981 372.272, 747.906 371.370, 748.660 370.166 C 749.344 369.073, 751.560 368.328, 755.102 368 C 758.954 367.643, 760.500 367.080, 760.500 366.032 C 760.500 365.224, 758.700 363.544, 756.500 362.298 C 754.195 360.993, 750.805 360.031, 748.500 360.028 C 746.094 360.026, 742.813 360.989, 740.265 362.445 M 860.500 371.549 C 856.650 372.842, 852.656 373.922, 851.624 373.950 C 850.592 373.977, 845.731 374.943, 840.822 376.095 C 835.247 377.404, 832.039 378.624, 832.275 379.345 C 832.483 379.980, 834.419 381.101, 836.577 381.836 C 839.034 382.674, 843.302 383.019, 848 382.760 C 852.164 382.531, 857.089 381.589, 859.073 380.643 C 861.039 379.706, 864.526 377.239, 866.823 375.160 C 869.120 373.081, 871 370.845, 871 370.190 C 871 369.536, 870.212 369.045, 869.250 369.100 C 868.288 369.155, 864.350 370.257, 860.500 371.549" stroke="none" fill="#060606" fill-rule="evenodd"/></svg>